<svg width="38" height="42" viewBox="0 0 38 42" fill="none" xmlns="http://www.w3.org/2000/svg">
<g clip-path="url(#clip0_55_3)">
<mask id="mask0_55_3" style="mask-type:luminance" maskUnits="userSpaceOnUse" x="0" y="0" width="38" height="41">
<path d="M0 0.254272H37.52V40.9286H0V0.254272Z" fill="white"/>
</mask>
<g mask="url(#mask0_55_3)">
<path fill-rule="evenodd" clip-rule="evenodd" d="M35.7046 19.4627C35.851 19.422 36.0056 19.5028 36.0483 19.6424C36.1504 19.9782 36.211 20.0756 36.295 20.2103C36.3304 20.2672 36.3857 20.3099 36.4508 20.3305C36.4508 20.3305 36.7124 20.4083 36.9764 20.4856L37.4282 19.8308C37.4872 19.7408 37.52 19.6312 37.52 19.5186C37.52 19.3902 37.4783 19.268 37.399 19.165L36.4164 17.954C36.2776 17.7918 36.1507 17.6118 36.0433 17.4237L33.7997 13.5589C33.3222 12.659 32.4191 12.055 31.3791 11.9348L25.5716 11.2706C25.5629 11.2695 25.554 11.2667 25.5453 11.265C25.5356 11.2629 25.5254 11.2617 25.5162 11.2586C25.5157 11.2584 25.5154 11.2581 25.5149 11.2581C25.4976 11.2525 25.4813 11.2454 25.4658 11.237C25.4596 11.2334 25.454 11.2289 25.448 11.2251C25.4393 11.2192 25.4302 11.2139 25.422 11.2073C25.4155 11.2017 25.41 11.1951 25.4039 11.189C25.3976 11.1829 25.3911 11.177 25.3856 11.1702C25.3803 11.1641 25.3766 11.1569 25.3722 11.1503C25.3669 11.1427 25.3612 11.1353 25.357 11.1272C25.3535 11.1208 25.3515 11.1137 25.3486 11.1069C25.3446 11.098 25.3404 11.0893 25.3375 11.0799C25.3352 11.0715 25.3341 11.0629 25.3326 11.0542C25.3312 11.0461 25.3289 11.0382 25.3281 11.0298C25.3271 11.0156 25.3278 11.0011 25.3291 10.9869C25.3294 10.9836 25.3289 10.9808 25.3294 10.9775C25.3297 10.9742 25.3312 10.9704 25.3318 10.967C25.3344 10.952 25.3375 10.9373 25.3425 10.9233C25.6109 10.1681 25.7471 9.37728 25.7471 8.57273C25.7471 6.90136 25.1394 5.26558 24.0367 3.96662L20.9768 0.465005C20.8582 0.331804 20.6822 0.254272 20.4959 0.254272C20.1556 0.254272 19.878 0.506439 19.8641 0.828766C19.8638 0.8369 19.8628 0.845289 19.8617 0.853423L19.4241 3.88095C19.3737 4.22107 19.3483 4.56806 19.3483 4.91326C19.3483 6.51472 19.8817 8.03637 20.8905 9.31398L21.8259 10.5209C22.3315 11.1343 22.6017 11.8789 22.6017 12.6674L22.6012 12.7304L22.5099 15.8596C22.5018 15.9641 22.4902 16.0559 22.475 16.1474C22.1617 18.0257 20.36 19.3097 18.3725 19.0712L15.2741 18.6698C14.6276 18.5796 13.969 18.5338 13.3133 18.5338C5.97224 18.5338 0 24.1995 0 31.1633C0 32.0723 0.0808123 32.8568 0.254244 33.6321C0.44473 34.4839 0.617637 35.0475 0.764831 35.5091C1.32763 37.2745 2.75916 38.7049 4.59397 39.3353L6.69535 40.058C7.35602 40.2787 8.05263 40.3908 8.76315 40.3908L17.5504 40.9286C17.6034 40.9274 17.6415 40.8981 17.6538 40.872L18.1673 39.9116C18.2415 39.7728 18.2793 39.6226 18.2793 39.4655C18.2793 38.9835 17.9033 38.5659 17.403 38.4904L8.9943 37.8648C8.84554 37.8538 8.73271 37.7333 8.73849 37.592C8.74452 37.4509 8.86679 37.3391 9.01582 37.3391C12.4532 37.3391 15.2496 34.6865 15.2496 31.4256C15.2496 28.165 12.4532 25.5124 9.01582 25.5124C7.46045 25.5124 5.97093 26.0587 4.82171 27.0511C4.7081 27.1489 4.53257 27.1411 4.42946 27.0338C4.32634 26.9263 4.33474 26.7595 4.44783 26.6616C5.69963 25.581 7.32191 24.9857 9.01582 24.9857C12.7592 24.9857 15.8046 27.8747 15.8046 31.4256C15.8046 34.232 13.9026 36.6248 11.2573 37.5051L17.4568 37.9662C17.4633 37.9667 17.4699 37.9675 17.4762 37.9682C17.9222 38.0318 18.3043 38.2728 18.5485 38.6073C19.8966 38.4713 21.2138 38.1586 22.4656 37.6728C22.5469 37.6416 22.6393 37.6479 22.7146 37.6914L22.7841 37.7316L26.3936 39.9309C26.4115 39.9418 26.4298 39.9467 26.4498 39.9467H29.8893C30.4634 39.9467 30.9301 39.5039 30.9301 38.9594C30.9301 38.6098 30.7415 38.2931 30.4248 38.1126L27.7512 36.4878C27.742 36.4824 27.7333 36.4766 27.7252 36.47C27.3526 36.1812 27.139 35.7536 27.139 35.2979C27.139 34.8965 27.303 34.5182 27.6003 34.233L27.7357 34.094C30.1456 31.7246 31.4706 28.6106 31.4706 25.3223C31.4706 24.7839 31.4326 24.2437 31.3612 23.7124C31.0369 23.6992 30.6969 23.6585 30.3269 23.5856C29.9399 23.5093 26.7636 22.5639 26.4028 22.4561C25.8657 22.2853 25.4144 21.9383 25.1274 21.4772C24.7648 20.8954 24.4788 20.4358 24.0097 18.8287C23.9687 18.6886 24.0553 18.5435 24.203 18.5046C24.3502 18.4657 24.5037 18.5481 24.5446 18.6881C24.9941 20.2281 25.2638 20.661 25.6052 21.2093C25.8243 21.5616 26.1685 21.8265 26.5741 21.9556C27.5423 22.2441 30.1354 23.0101 30.44 23.07C30.9997 23.1804 31.4785 23.2109 31.9421 23.1796C32.0507 23.1722 32.1586 23.1618 32.2651 23.1478L34.0773 22.9094C34.9445 22.7808 35.7227 22.3029 36.2084 21.5985L36.6599 20.9439C36.4529 20.8829 36.2795 20.8313 36.2795 20.8313C36.0827 20.769 35.9205 20.644 35.8172 20.4782C35.7049 20.298 35.6285 20.1617 35.5149 19.7888C35.4724 19.649 35.5574 19.5031 35.7046 19.4627ZM31.7055 16.7504L31.6989 16.7506C31.6608 16.7506 31.6223 16.7473 31.5819 16.7425L30.2889 16.5066C29.7552 16.3749 29.3908 15.927 29.3908 15.4145C29.3908 14.7938 29.9231 14.2889 30.5772 14.2889C30.911 14.2889 31.2332 14.4206 31.4612 14.6504C31.6742 14.865 31.7818 15.14 31.7637 15.4252C31.7377 15.8345 31.887 16.0292 31.9956 16.1715L32.0101 16.1899C32.0573 16.2554 32.0796 16.3243 32.0796 16.3952C32.0796 16.591 31.9117 16.7504 31.7055 16.7504Z" fill="#FEFEFE"/>
</g>
<path fill-rule="evenodd" clip-rule="evenodd" d="M24.769 4.01578C25.7606 5.34219 26.3024 6.94137 26.3024 8.57283C26.3024 9.32679 26.1906 10.0696 25.9699 10.7856L28.8343 11.1133C28.9962 10.5152 29.0804 9.89747 29.0804 9.27544C29.0804 8.52199 28.9608 7.77896 28.7249 7.06745C28.674 6.91824 27.1157 2.85967 26.5196 1.30829C26.4254 1.1001 26.1972 0.956726 25.9432 0.956726C25.6422 0.956726 25.3814 1.15958 25.3232 1.4392L25.0133 2.60878C24.8834 3.06913 24.8029 3.54118 24.769 4.01578Z" fill="#FEFEFE"/>
</g>
<defs>
<clipPath id="clip0_55_3">
<rect width="37.52" height="41.1805" fill="white"/>
</clipPath>
</defs>
</svg>
