<svg xmlns="http://www.w3.org/2000/svg" width="256" height="256" viewBox="0 0 256 256"><defs><linearGradient id="tt" x1="0" y1="0" x2="1" y2="1"><stop offset="0" stop-color="#0257c9"></stop><stop offset="1" stop-color="#0246a8"></stop></linearGradient></defs><rect width="256" height="256" rx="56" fill="url(#tt)"></rect><svg x="46" y="44" width="164" height="168" viewBox="425 528 286 292" preserveAspectRatio="xMidYMid meet"><defs>
&#x9;<linearGradient id="Gradient1" gradientUnits="userSpaceOnUse" x1="470.112" y1="770.971" x2="554.27" y2="731.851">
&#x9;&#x9;<stop class="stop0" offset="0" stop-opacity="1" stop-color="rgb(255,246,237)"></stop>
&#x9;&#x9;<stop class="stop1" offset="1" stop-opacity="1" stop-color="rgb(244,221,212)"></stop>
&#x9;</linearGradient>
&#x9;<linearGradient id="Gradient2" gradientUnits="userSpaceOnUse" x1="465" y1="602.296" x2="581.681" y2="590.875">
&#x9;&#x9;<stop class="stop0" offset="0" stop-opacity="1" stop-color="rgb(255,246,237)"></stop>
&#x9;&#x9;<stop class="stop1" offset="1" stop-opacity="1" stop-color="rgb(248,230,210)"></stop>
&#x9;</linearGradient>
&#x9;<linearGradient id="Gradient3" gradientUnits="userSpaceOnUse" x1="1403" y1="699.486" x2="1410.25" y2="764.819">
&#x9;&#x9;<stop class="stop0" offset="0" stop-opacity="0.980392" stop-color="rgb(0,48,134)"></stop>
&#x9;&#x9;<stop class="stop1" offset="1" stop-opacity="1" stop-color="rgb(12,112,153)"></stop>
&#x9;</linearGradient>
&#x9;<linearGradient id="Gradient4" gradientUnits="userSpaceOnUse" x1="445.938" y1="631.831" x2="556.771" y2="614.842">
&#x9;&#x9;<stop class="stop0" offset="0" stop-opacity="1" stop-color="rgb(255,246,237)"></stop>
&#x9;&#x9;<stop class="stop1" offset="1" stop-opacity="1" stop-color="rgb(244,221,212)"></stop>
&#x9;</linearGradient>
&#x9;<linearGradient id="Gradient5" gradientUnits="userSpaceOnUse" x1="1206.92" y1="644.315" x2="1323.93" y2="603.128">
&#x9;&#x9;<stop class="stop0" offset="0" stop-opacity="1" stop-color="rgb(1,75,183)"></stop>
&#x9;&#x9;<stop class="stop1" offset="1" stop-opacity="1" stop-color="rgb(1,102,199)"></stop>
&#x9;</linearGradient>
&#x9;<linearGradient id="Gradient6" gradientUnits="userSpaceOnUse" x1="1355.12" y1="671.639" x2="1473.46" y2="577.093">
&#x9;&#x9;<stop class="stop0" offset="0" stop-opacity="1" stop-color="rgb(2,117,205)"></stop>
&#x9;&#x9;<stop class="stop1" offset="1" stop-opacity="1" stop-color="rgb(0,157,213)"></stop>
&#x9;</linearGradient>
&#x9;<linearGradient id="Gradient7" gradientUnits="userSpaceOnUse" x1="1606.12" y1="702.232" x2="1633.82" y2="544.108">
&#x9;&#x9;<stop class="stop0" offset="0" stop-opacity="1" stop-color="rgb(1,157,210)"></stop>
&#x9;&#x9;<stop class="stop1" offset="1" stop-opacity="1" stop-color="rgb(1,186,211)"></stop>
&#x9;</linearGradient>
</defs><path transform="translate(0,0)" fill="url(#Gradient4)" d="M 433.614 562.503 C 442.52 568.313 453.858 577.169 462.736 583.589 C 492.529 604.917 521.49 627.871 551.289 649.26 C 556.852 653.252 562.413 657.447 567.646 661.859 C 562.749 667.381 554.07 676.621 549.907 682.21 C 548.692 683.612 547.339 684.81 545.984 686.078 C 541.422 686.229 453.949 620.205 444.831 612.456 C 441.169 602.031 436.721 575.354 433.614 562.503 z"></path><path transform="translate(0,0)" fill="url(#Gradient2)" d="M 457.029 536.628 L 547.524 603.548 C 560.313 613.065 578.321 625.604 590.098 635.517 C 584.276 643.996 575.52 652.107 568.06 659.157 C 561.523 652.996 549.419 644.415 541.784 638.676 L 493.156 602.396 C 486.401 597.36 471.016 586.6 466.512 580.381 C 463.793 565.705 460.631 551.114 457.029 536.628 z"></path><path transform="translate(0,0)" fill="rgb(250,235,222)" d="M 592.507 636.967 L 596.846 639.098 C 601.774 644.088 614.042 653.531 620.102 657.997 C 611.996 666.547 604.317 675.328 596.536 684.161 C 578.291 704.872 558.928 724.733 540.794 745.53 L 533.6 751.957 C 536.971 741.077 543.431 706.016 544.341 695.29 C 546.31 690.589 548.587 688.289 551.859 684.403 C 561.507 673.272 585.737 647.242 592.507 636.967 z"></path><path transform="translate(0,0)" fill="rgb(250,235,222)" d="M 604.728 589.611 C 618.199 590.024 657.771 581.908 662.68 583.898 L 663.161 586.691 C 655.637 630.144 648.984 623.039 621.73 656.118 C 617.093 652.333 602.074 639.611 597.738 637.921 C 597.054 636.962 596.892 636.198 596.455 635.051 C 600.561 627.818 619.174 610.206 625.957 603.542 C 619.556 598.997 611.406 593.974 604.728 589.611 z"></path><path transform="translate(0,0)" fill="url(#Gradient1)" d="M 541.41 695.004 C 540.626 713.941 534.29 733.092 531.358 751.554 C 531.046 753.583 530.122 759.018 529.046 760.488 C 515.788 778.592 496.684 794.807 482.289 812.064 C 483.812 802.66 487.954 757.066 491.771 753.081 C 503.367 740.973 529.716 703.174 541.41 695.004 z"></path><path transform="translate(0,0)" fill="rgb(250,235,222)" d="M 621.728 659.317 C 630.669 665.42 639.538 672.428 648.715 678.71 C 644.979 684.567 543.92 753.061 535.053 757.066 L 534.42 756.654 C 537.057 753.53 539.706 750.449 542.216 747.222 C 546.681 743.093 551.041 738.439 555.07 733.88 C 576.996 709.068 600.673 684.813 621.728 659.317 z"></path><path transform="translate(0,0)" fill="rgb(250,235,222)" d="M 660.593 615.938 C 662.117 623.448 653.81 669.812 650.584 676.284 C 641.236 670.075 632.387 664.045 623.738 656.878 C 636.035 643.769 648.502 629.377 660.593 615.938 z"></path><path transform="translate(0,0)" fill="rgb(2,18,25)" fill-opacity="0.0392157" d="M 663.161 586.691 L 664.767 593.323 C 663.484 598.98 660.805 608.795 661.145 614.214 L 660.593 615.938 C 648.502 629.377 636.035 643.769 623.738 656.878 C 632.387 664.045 641.236 670.075 650.584 676.284 C 649.811 677.185 649.241 677.685 648.715 678.71 C 639.538 672.428 630.669 665.42 621.728 659.317 C 600.673 684.813 576.996 709.068 555.07 733.88 C 551.041 738.439 546.681 743.093 542.216 747.222 L 540.794 745.53 C 558.928 724.733 578.291 704.872 596.536 684.161 C 604.317 675.328 611.996 666.547 620.102 657.997 C 614.042 653.531 601.774 644.088 596.846 639.098 L 597.738 637.921 C 602.074 639.611 617.093 652.333 621.73 656.118 C 648.984 623.039 655.637 630.144 663.161 586.691 z"></path><path transform="translate(0,0)" fill="rgb(250,235,222)" d="M 664.767 593.323 C 665.638 589.894 666.811 585.869 667.236 582.412 C 679.727 586.008 692.061 589.347 704.043 594.404 C 694.539 599.551 671.577 609.806 661.145 614.214 C 660.805 608.795 663.484 598.98 664.767 593.323 z"></path><path transform="translate(0,0)" fill="rgb(2,18,25)" fill-opacity="0.0235294" d="M 462.736 583.589 C 462.829 582.853 463.283 581.345 463.492 580.557 L 466.512 580.381 C 471.016 586.6 486.401 597.36 493.156 602.396 L 541.784 638.676 C 549.419 644.415 561.523 652.996 568.06 659.157 C 575.52 652.107 584.276 643.996 590.098 635.517 L 592.507 636.967 C 585.737 647.242 561.507 673.272 551.859 684.403 L 549.907 682.21 C 554.07 676.621 562.749 667.381 567.646 661.859 C 562.413 657.447 556.852 653.252 551.289 649.26 C 521.49 627.871 492.529 604.917 462.736 583.589 z"></path><path transform="translate(0,0)" fill="rgb(2,18,25)" fill-opacity="0.0235294" d="M 541.41 695.004 L 544.341 695.29 C 543.431 706.016 536.971 741.077 533.6 751.957 L 531.358 751.554 C 534.29 733.092 540.626 713.941 541.41 695.004 z"></path></svg></svg>